<svg width="226" height="70" viewBox="0 0 226 70" fill="none" xmlns="http://www.w3.org/2000/svg">
<g filter="url(#filter0_i_145_238)">
<path d="M29.1348 39.9147V10.8237H41.2655C43.4435 10.8237 45.2664 11.1315 46.7342 11.747C48.2115 12.3626 49.3195 13.2243 50.0581 14.3323C50.8062 15.4402 51.1803 16.7234 51.1803 18.1817C51.1803 19.2897 50.9483 20.2792 50.4842 21.1505C50.0202 22.0122 49.381 22.7272 48.5666 23.2953C47.7522 23.8635 46.81 24.2612 45.7399 24.4885V24.7726C46.9142 24.8294 47.9984 25.1467 48.9928 25.7243C49.9966 26.302 50.8015 27.1069 51.4075 28.1391C52.0136 29.1618 52.3166 30.3739 52.3166 31.7755C52.3166 33.338 51.9189 34.7347 51.1234 35.9658C50.328 37.1874 49.1774 38.1533 47.6717 38.8635C46.1661 39.5643 44.3384 39.9147 42.1888 39.9147H29.1348ZM36.1661 34.247H40.5127C42.0373 34.247 43.1594 33.9582 43.8791 33.3806C44.6083 32.8029 44.9729 31.998 44.9729 30.9658C44.9729 30.2177 44.7977 29.5737 44.4473 29.034C44.0969 28.4847 43.5998 28.0633 42.9558 27.7698C42.3119 27.4667 41.5401 27.3152 40.6405 27.3152H36.1661V34.247ZM36.1661 22.784H40.0581C40.8252 22.784 41.507 22.6561 42.1036 22.4005C42.7002 22.1448 43.1642 21.7755 43.4956 21.2925C43.8365 20.8095 44.007 20.2272 44.007 19.5453C44.007 18.57 43.6613 17.8029 42.97 17.2442C42.2787 16.6855 41.346 16.4061 40.1717 16.4061H36.1661V22.784ZM61.1286 10.8237V39.9147H54.0973V10.8237H61.1286ZM63.9426 39.9147V10.8237H70.9739V23.1249H71.3574L80.9739 10.8237H89.2551L78.9426 23.8067L89.4398 39.9147H81.0307L73.7864 28.48L70.9739 32.0311V39.9147H63.9426ZM90.4286 39.9147V10.8237H110.713V16.534H97.4598V22.4999H109.676V28.2243H97.4598V34.2044H110.713V39.9147H90.4286Z" fill="#25F2FF"/>
<path d="M127.479 25.4686V30.8237H114.013V25.4686H127.479Z" fill="#09B3D4"/>
<path d="M130.783 39.9147V10.8237H137.814V22.4999H149.278V10.8237H156.295V39.9147H149.278V28.2243H137.814V39.9147H130.783ZM176.705 10.8237H183.722V29.588C183.722 31.7565 183.205 33.6457 182.173 35.2556C181.141 36.8559 179.702 38.0965 177.855 38.9772C176.009 39.8484 173.864 40.284 171.42 40.284C168.949 40.284 166.79 39.8484 164.943 38.9772C163.097 38.0965 161.662 36.8559 160.639 35.2556C159.616 33.6457 159.105 31.7565 159.105 29.588V10.8237H166.136V28.9772C166.136 29.9809 166.354 30.8758 166.79 31.6618C167.235 32.4478 167.855 33.0633 168.651 33.5084C169.446 33.9535 170.369 34.176 171.42 34.176C172.472 34.176 173.39 33.9535 174.176 33.5084C174.972 33.0633 175.592 32.4478 176.037 31.6618C176.482 30.8758 176.705 29.9809 176.705 28.9772V10.8237ZM186.529 39.9147V10.8237H198.659C200.837 10.8237 202.66 11.1315 204.128 11.747C205.605 12.3626 206.713 13.2243 207.452 14.3323C208.2 15.4402 208.574 16.7234 208.574 18.1817C208.574 19.2897 208.342 20.2792 207.878 21.1505C207.414 22.0122 206.775 22.7272 205.96 23.2953C205.146 23.8635 204.204 24.2612 203.134 24.4885V24.7726C204.308 24.8294 205.392 25.1467 206.387 25.7243C207.39 26.302 208.195 27.1069 208.801 28.1391C209.407 29.1618 209.71 30.3739 209.71 31.7755C209.71 33.338 209.313 34.7347 208.517 35.9658C207.722 37.1874 206.571 38.1533 205.065 38.8635C203.56 39.5643 201.732 39.9147 199.583 39.9147H186.529ZM193.56 34.247H197.906C199.431 34.247 200.553 33.9582 201.273 33.3806C202.002 32.8029 202.367 31.998 202.367 30.9658C202.367 30.2177 202.191 29.5737 201.841 29.034C201.491 28.4847 200.994 28.0633 200.35 27.7698C199.706 27.4667 198.934 27.3152 198.034 27.3152H193.56V34.247ZM193.56 22.784H197.452C198.219 22.784 198.901 22.6561 199.497 22.4005C200.094 22.1448 200.558 21.7755 200.889 21.2925C201.23 20.8095 201.401 20.2272 201.401 19.5453C201.401 18.57 201.055 17.8029 200.364 17.2442C199.673 16.6855 198.74 16.4061 197.565 16.4061H193.56V22.784Z" fill="#06E09F"/>
</g>
<path d="M30.4161 49.0851V48.3038H35.8706V49.0851H33.5837V55.5766H32.703V49.0851H30.4161ZM37.5542 52.2953V55.5766H36.7162V48.3038H37.5542V50.9743H37.6253C37.7531 50.6926 37.9449 50.4689 38.2005 50.3031C38.4586 50.135 38.8019 50.051 39.2304 50.051C39.6021 50.051 39.9276 50.1256 40.2069 50.2747C40.4863 50.4215 40.7029 50.6476 40.8568 50.953C41.013 51.256 41.0912 51.6419 41.0912 52.1107V55.5766H40.2531V52.1675C40.2531 51.7342 40.1406 51.3992 39.9157 51.1625C39.6932 50.9234 39.3843 50.8038 38.9889 50.8038C38.7143 50.8038 38.4681 50.8618 38.2503 50.9778C38.0348 51.0939 37.8644 51.2631 37.7389 51.4857C37.6158 51.7082 37.5542 51.9781 37.5542 52.2953ZM44.5113 55.6902C43.9857 55.6902 43.5324 55.5742 43.1512 55.3422C42.7724 55.1078 42.4801 54.7811 42.2741 54.3621C42.0705 53.9407 41.9687 53.4506 41.9687 52.8919C41.9687 52.3332 42.0705 51.8408 42.2741 51.4146C42.4801 50.9861 42.7665 50.6523 43.1335 50.4132C43.5028 50.1717 43.9336 50.051 44.4261 50.051C44.7102 50.051 44.9907 50.0983 45.2677 50.193C45.5447 50.2877 45.7968 50.4416 46.0241 50.6547C46.2514 50.8654 46.4325 51.1448 46.5674 51.4928C46.7024 51.8408 46.7698 52.2693 46.7698 52.7783V53.1334H42.5653V52.409H45.9176C45.9176 52.1012 45.856 51.8266 45.7329 51.5851C45.6122 51.3436 45.4393 51.153 45.2144 51.0134C44.9919 50.8737 44.7291 50.8038 44.4261 50.8038C44.0923 50.8038 43.8034 50.8867 43.5596 51.0524C43.3181 51.2158 43.1323 51.4288 43.0021 51.6916C42.8719 51.9544 42.8068 52.2361 42.8068 52.5368V53.0198C42.8068 53.4317 42.8778 53.7809 43.0198 54.0673C43.1642 54.3514 43.3643 54.568 43.62 54.7172C43.8756 54.864 44.1728 54.9374 44.5113 54.9374C44.7315 54.9374 44.9303 54.9066 45.1079 54.845C45.2878 54.7811 45.4429 54.6864 45.5731 54.5609C45.7033 54.4331 45.8039 54.2745 45.8749 54.0851L46.6846 54.3124C46.5994 54.587 46.4561 54.8285 46.2549 55.0368C46.0537 55.2428 45.8051 55.4037 45.5092 55.5198C45.2132 55.6334 44.8806 55.6902 44.5113 55.6902ZM56.0231 50.5766H55.1424C55.0903 50.3233 54.9992 50.1007 54.869 49.909C54.7411 49.7172 54.5849 49.5562 54.4002 49.426C54.2179 49.2934 54.0155 49.194 53.793 49.1277C53.5704 49.0614 53.3384 49.0283 53.097 49.0283C52.6566 49.0283 52.2577 49.1395 51.9002 49.3621C51.5451 49.5846 51.2622 49.9125 51.0515 50.3457C50.8432 50.779 50.739 51.3105 50.739 51.9402C50.739 52.5699 50.8432 53.1014 51.0515 53.5347C51.2622 53.9679 51.5451 54.2958 51.9002 54.5183C52.2577 54.7409 52.6566 54.8521 53.097 54.8521C53.3384 54.8521 53.5704 54.819 53.793 54.7527C54.0155 54.6864 54.2179 54.5882 54.4002 54.458C54.5849 54.3254 54.7411 54.1632 54.869 53.9715C54.9992 53.7773 55.0903 53.5548 55.1424 53.3038H56.0231C55.9568 53.6755 55.8361 54.0082 55.6609 54.3017C55.4857 54.5953 55.2679 54.845 55.0075 55.051C54.747 55.2546 54.4547 55.4097 54.1303 55.5162C53.8084 55.6227 53.4639 55.676 53.097 55.676C52.4767 55.676 51.9251 55.5245 51.4421 55.2215C50.9592 54.9184 50.5792 54.4876 50.3022 53.9288C50.0252 53.3701 49.8867 52.7073 49.8867 51.9402C49.8867 51.1732 50.0252 50.5103 50.3022 49.9516C50.5792 49.3929 50.9592 48.962 51.4421 48.659C51.9251 48.3559 52.4767 48.2044 53.097 48.2044C53.4639 48.2044 53.8084 48.2577 54.1303 48.3642C54.4547 48.4707 54.747 48.627 55.0075 48.833C55.2679 49.0366 55.4857 49.2851 55.6609 49.5787C55.8361 49.8699 55.9568 50.2025 56.0231 50.5766ZM59.2195 55.6902C58.6939 55.6902 58.2406 55.5742 57.8594 55.3422C57.4806 55.1078 57.1883 54.7811 56.9823 54.3621C56.7787 53.9407 56.6769 53.4506 56.6769 52.8919C56.6769 52.3332 56.7787 51.8408 56.9823 51.4146C57.1883 50.9861 57.4747 50.6523 57.8417 50.4132C58.211 50.1717 58.6419 50.051 59.1343 50.051C59.4184 50.051 59.6989 50.0983 59.9759 50.193C60.2529 50.2877 60.505 50.4416 60.7323 50.6547C60.9596 50.8654 61.1407 51.1448 61.2756 51.4928C61.4106 51.8408 61.478 52.2693 61.478 52.7783V53.1334H57.2735V52.409H60.6258C60.6258 52.1012 60.5642 51.8266 60.4411 51.5851C60.3204 51.3436 60.1475 51.153 59.9226 51.0134C59.7001 50.8737 59.4373 50.8038 59.1343 50.8038C58.8005 50.8038 58.5116 50.8867 58.2678 51.0524C58.0263 51.2158 57.8405 51.4288 57.7103 51.6916C57.5801 51.9544 57.515 52.2361 57.515 52.5368V53.0198C57.515 53.4317 57.586 53.7809 57.728 54.0673C57.8724 54.3514 58.0725 54.568 58.3282 54.7172C58.5839 54.864 58.881 54.9374 59.2195 54.9374C59.4397 54.9374 59.6385 54.9066 59.8161 54.845C59.996 54.7811 60.1511 54.6864 60.2813 54.5609C60.4115 54.4331 60.5121 54.2745 60.5831 54.0851L61.3928 54.3124C61.3076 54.587 61.1643 54.8285 60.9631 55.0368C60.7619 55.2428 60.5133 55.4037 60.2174 55.5198C59.9214 55.6334 59.5888 55.6902 59.2195 55.6902ZM63.191 52.2953V55.5766H62.3529V50.122H63.1625V50.9743H63.2336C63.3614 50.6973 63.5555 50.4748 63.816 50.3067C64.0764 50.1362 64.4125 50.051 64.8245 50.051C65.1938 50.051 65.5169 50.1268 65.7939 50.2783C66.0709 50.4274 66.2864 50.6547 66.4402 50.9601C66.5941 51.2631 66.6711 51.6466 66.6711 52.1107V55.5766H65.833V52.1675C65.833 51.739 65.7217 51.4052 65.4992 51.1661C65.2767 50.9246 64.9713 50.8038 64.583 50.8038C64.3155 50.8038 64.0764 50.8618 63.8657 50.9778C63.6573 51.0939 63.4928 51.2631 63.3721 51.4857C63.2513 51.7082 63.191 51.9781 63.191 52.2953ZM70.1747 50.122V50.8323H67.3479V50.122H70.1747ZM68.1718 48.8152H69.0099V54.0141C69.0099 54.2508 69.0442 54.4284 69.1129 54.5467C69.1839 54.6627 69.2738 54.7409 69.3828 54.7811C69.494 54.819 69.6112 54.8379 69.7343 54.8379C69.8266 54.8379 69.9024 54.8332 69.9616 54.8237C70.0208 54.8119 70.0681 54.8024 70.1036 54.7953L70.2741 55.5482C70.2173 55.5695 70.138 55.5908 70.0362 55.6121C69.9344 55.6358 69.8053 55.6476 69.6491 55.6476C69.4123 55.6476 69.1803 55.5967 68.9531 55.4949C68.7282 55.3931 68.5411 55.238 68.392 55.0297C68.2452 54.8214 68.1718 54.5586 68.1718 54.2413V48.8152ZM73.2636 55.6902C72.7381 55.6902 72.2847 55.5742 71.9036 55.3422C71.5248 55.1078 71.2324 54.7811 71.0264 54.3621C70.8228 53.9407 70.721 53.4506 70.721 52.8919C70.721 52.3332 70.8228 51.8408 71.0264 51.4146C71.2324 50.9861 71.5189 50.6523 71.8858 50.4132C72.2551 50.1717 72.686 50.051 73.1784 50.051C73.4625 50.051 73.743 50.0983 74.02 50.193C74.297 50.2877 74.5492 50.4416 74.7764 50.6547C75.0037 50.8654 75.1848 51.1448 75.3198 51.4928C75.4547 51.8408 75.5222 52.2693 75.5222 52.7783V53.1334H71.3176V52.409H74.6699C74.6699 52.1012 74.6083 51.8266 74.4852 51.5851C74.3645 51.3436 74.1917 51.153 73.9668 51.0134C73.7442 50.8737 73.4814 50.8038 73.1784 50.8038C72.8446 50.8038 72.5558 50.8867 72.3119 51.0524C72.0705 51.2158 71.8846 51.4288 71.7544 51.6916C71.6242 51.9544 71.5591 52.2361 71.5591 52.5368V53.0198C71.5591 53.4317 71.6301 53.7809 71.7722 54.0673C71.9166 54.3514 72.1166 54.568 72.3723 54.7172C72.628 54.864 72.9251 54.9374 73.2636 54.9374C73.4838 54.9374 73.6827 54.9066 73.8602 54.845C74.0402 54.7811 74.1952 54.6864 74.3254 54.5609C74.4556 54.4331 74.5563 54.2745 74.6273 54.0851L75.4369 54.3124C75.3517 54.587 75.2085 54.8285 75.0073 55.0368C74.806 55.2428 74.5574 55.4037 74.2615 55.5198C73.9656 55.6334 73.633 55.6902 73.2636 55.6902ZM76.397 55.5766V50.122H77.2067V50.9459H77.2635C77.3629 50.676 77.5429 50.457 77.8033 50.2889C78.0637 50.1208 78.3573 50.0368 78.684 50.0368C78.7455 50.0368 78.8225 50.038 78.9148 50.0403C79.0071 50.0427 79.077 50.0463 79.1243 50.051V50.9033C79.0959 50.8962 79.0308 50.8855 78.929 50.8713C78.8296 50.8547 78.7242 50.8465 78.6129 50.8465C78.3478 50.8465 78.111 50.9021 77.9027 51.0134C77.6967 51.1223 77.5334 51.2738 77.4127 51.4679C77.2943 51.6597 77.2351 51.8787 77.2351 52.1249V55.5766H76.397ZM86.7586 55.6902C86.2662 55.6902 85.8342 55.573 85.4625 55.3386C85.0932 55.1043 84.8043 54.7764 84.596 54.355C84.39 53.9336 84.287 53.4412 84.287 52.8777C84.287 52.3095 84.39 51.8135 84.596 51.3898C84.8043 50.966 85.0932 50.6369 85.4625 50.4026C85.8342 50.1682 86.2662 50.051 86.7586 50.051C87.2511 50.051 87.6819 50.1682 88.0513 50.4026C88.4229 50.6369 88.7118 50.966 88.9177 51.3898C89.1261 51.8135 89.2302 52.3095 89.2302 52.8777C89.2302 53.4412 89.1261 53.9336 88.9177 54.355C88.7118 54.7764 88.4229 55.1043 88.0513 55.3386C87.6819 55.573 87.2511 55.6902 86.7586 55.6902ZM86.7586 54.9374C87.1327 54.9374 87.4405 54.8415 87.6819 54.6497C87.9234 54.458 88.1022 54.2058 88.2182 53.8933C88.3342 53.5808 88.3922 53.2423 88.3922 52.8777C88.3922 52.5131 88.3342 52.1734 88.2182 51.8585C88.1022 51.5437 87.9234 51.2892 87.6819 51.095C87.4405 50.9009 87.1327 50.8038 86.7586 50.8038C86.3846 50.8038 86.0768 50.9009 85.8353 51.095C85.5939 51.2892 85.4151 51.5437 85.2991 51.8585C85.1831 52.1734 85.1251 52.5131 85.1251 52.8777C85.1251 53.2423 85.1831 53.5808 85.2991 53.8933C85.4151 54.2058 85.5939 54.458 85.8353 54.6497C86.0768 54.8415 86.3846 54.9374 86.7586 54.9374ZM92.5385 50.122V50.8323H89.5982V50.122H92.5385ZM90.4788 55.5766V49.3692C90.4788 49.0567 90.5522 48.7963 90.699 48.5879C90.8458 48.3796 91.0364 48.2233 91.2707 48.1192C91.5051 48.015 91.7525 47.9629 92.0129 47.9629C92.2189 47.9629 92.387 47.9795 92.5172 48.0126C92.6474 48.0458 92.7445 48.0766 92.8084 48.105L92.5669 48.8294C92.5243 48.8152 92.4651 48.7974 92.3894 48.7761C92.316 48.7548 92.2189 48.7442 92.0982 48.7442C91.8212 48.7442 91.6211 48.814 91.498 48.9537C91.3773 49.0934 91.3169 49.2982 91.3169 49.568V55.5766H90.4788ZM95.2142 48.3038H96.2227L98.2397 51.6987H98.325L100.342 48.3038H101.351L98.7227 52.5794V55.5766H97.842V52.5794L95.2142 48.3038ZM103.42 55.6902C102.928 55.6902 102.496 55.573 102.124 55.3386C101.755 55.1043 101.466 54.7764 101.258 54.355C101.052 53.9336 100.949 53.4412 100.949 52.8777C100.949 52.3095 101.052 51.8135 101.258 51.3898C101.466 50.966 101.755 50.6369 102.124 50.4026C102.496 50.1682 102.928 50.051 103.42 50.051C103.913 50.051 104.344 50.1682 104.713 50.4026C105.085 50.6369 105.373 50.966 105.579 51.3898C105.788 51.8135 105.892 52.3095 105.892 52.8777C105.892 53.4412 105.788 53.9336 105.579 54.355C105.373 54.7764 105.085 55.1043 104.713 55.3386C104.344 55.573 103.913 55.6902 103.42 55.6902ZM103.42 54.9374C103.794 54.9374 104.102 54.8415 104.344 54.6497C104.585 54.458 104.764 54.2058 104.88 53.8933C104.996 53.5808 105.054 53.2423 105.054 52.8777C105.054 52.5131 104.996 52.1734 104.88 51.8585C104.764 51.5437 104.585 51.2892 104.344 51.095C104.102 50.9009 103.794 50.8038 103.42 50.8038C103.046 50.8038 102.739 50.9009 102.497 51.095C102.256 51.2892 102.077 51.5437 101.961 51.8585C101.845 52.1734 101.787 52.5131 101.787 52.8777C101.787 53.2423 101.845 53.5808 101.961 53.8933C102.077 54.2058 102.256 54.458 102.497 54.6497C102.739 54.8415 103.046 54.9374 103.42 54.9374ZM110.209 53.3465V50.122H111.047V55.5766H110.209V54.6533H110.152C110.024 54.9303 109.825 55.1658 109.555 55.3599C109.285 55.5517 108.945 55.6476 108.533 55.6476C108.192 55.6476 107.889 55.573 107.624 55.4239C107.358 55.2724 107.15 55.0451 106.999 54.7421C106.847 54.4367 106.771 54.0519 106.771 53.5879V50.122H107.609V53.5311C107.609 53.9288 107.721 54.2461 107.943 54.4828C108.168 54.7196 108.454 54.8379 108.802 54.8379C109.011 54.8379 109.223 54.7847 109.438 54.6781C109.656 54.5716 109.838 54.4082 109.985 54.1881C110.134 53.9679 110.209 53.6874 110.209 53.3465ZM112.182 55.5766V50.122H112.991V50.9459H113.048C113.148 50.676 113.328 50.457 113.588 50.2889C113.848 50.1208 114.142 50.0368 114.469 50.0368C114.53 50.0368 114.607 50.038 114.7 50.0403C114.792 50.0427 114.862 50.0463 114.909 50.051V50.9033C114.881 50.8962 114.816 50.8855 114.714 50.8713C114.614 50.8547 114.509 50.8465 114.398 50.8465C114.133 50.8465 113.896 50.9021 113.687 51.0134C113.482 51.1223 113.318 51.2738 113.197 51.4679C113.079 51.6597 113.02 51.8787 113.02 52.1249V55.5766H112.182ZM120.441 48.3038H121.492L123.964 54.3408H124.049L126.521 48.3038H127.572V55.5766H126.748V50.051H126.677L124.404 55.5766H123.609L121.336 50.051H121.265V55.5766H120.441V48.3038ZM131.04 55.6902C130.547 55.6902 130.115 55.573 129.744 55.3386C129.374 55.1043 129.086 54.7764 128.877 54.355C128.671 53.9336 128.568 53.4412 128.568 52.8777C128.568 52.3095 128.671 51.8135 128.877 51.3898C129.086 50.966 129.374 50.6369 129.744 50.4026C130.115 50.1682 130.547 50.051 131.04 50.051C131.532 50.051 131.963 50.1682 132.332 50.4026C132.704 50.6369 132.993 50.966 133.199 51.3898C133.407 51.8135 133.511 52.3095 133.511 52.8777C133.511 53.4412 133.407 53.9336 133.199 54.355C132.993 54.7764 132.704 55.1043 132.332 55.3386C131.963 55.573 131.532 55.6902 131.04 55.6902ZM131.04 54.9374C131.414 54.9374 131.722 54.8415 131.963 54.6497C132.205 54.458 132.383 54.2058 132.499 53.8933C132.615 53.5808 132.673 53.2423 132.673 52.8777C132.673 52.5131 132.615 52.1734 132.499 51.8585C132.383 51.5437 132.205 51.2892 131.963 51.095C131.722 50.9009 131.414 50.8038 131.04 50.8038C130.666 50.8038 130.358 50.9009 130.117 51.095C129.875 51.2892 129.696 51.5437 129.58 51.8585C129.464 52.1734 129.406 52.5131 129.406 52.8777C129.406 53.2423 129.464 53.5808 129.58 53.8933C129.696 54.2058 129.875 54.458 130.117 54.6497C130.358 54.8415 130.666 54.9374 131.04 54.9374ZM136.763 50.122V50.8323H133.936V50.122H136.763ZM134.76 48.8152H135.598V54.0141C135.598 54.2508 135.632 54.4284 135.701 54.5467C135.772 54.6627 135.862 54.7409 135.971 54.7811C136.082 54.819 136.199 54.8379 136.323 54.8379C136.415 54.8379 136.491 54.8332 136.55 54.8237C136.609 54.8119 136.656 54.8024 136.692 54.7953L136.862 55.5482C136.806 55.5695 136.726 55.5908 136.624 55.6121C136.523 55.6358 136.394 55.6476 136.237 55.6476C136.001 55.6476 135.769 55.5967 135.541 55.4949C135.316 55.3931 135.129 55.238 134.98 55.0297C134.833 54.8214 134.76 54.5586 134.76 54.2413V48.8152ZM139.781 55.6902C139.288 55.6902 138.856 55.573 138.485 55.3386C138.115 55.1043 137.827 54.7764 137.618 54.355C137.412 53.9336 137.309 53.4412 137.309 52.8777C137.309 52.3095 137.412 51.8135 137.618 51.3898C137.827 50.966 138.115 50.6369 138.485 50.4026C138.856 50.1682 139.288 50.051 139.781 50.051C140.273 50.051 140.704 50.1682 141.074 50.4026C141.445 50.6369 141.734 50.966 141.94 51.3898C142.148 51.8135 142.252 52.3095 142.252 52.8777C142.252 53.4412 142.148 53.9336 141.94 54.355C141.734 54.7764 141.445 55.1043 141.074 55.3386C140.704 55.573 140.273 55.6902 139.781 55.6902ZM139.781 54.9374C140.155 54.9374 140.463 54.8415 140.704 54.6497C140.946 54.458 141.124 54.2058 141.24 53.8933C141.356 53.5808 141.414 53.2423 141.414 52.8777C141.414 52.5131 141.356 52.1734 141.24 51.8585C141.124 51.5437 140.946 51.2892 140.704 51.095C140.463 50.9009 140.155 50.8038 139.781 50.8038C139.407 50.8038 139.099 50.9009 138.858 51.095C138.616 51.2892 138.437 51.5437 138.321 51.8585C138.205 52.1734 138.147 52.5131 138.147 52.8777C138.147 53.2423 138.205 53.5808 138.321 53.8933C138.437 54.2058 138.616 54.458 138.858 54.6497C139.099 54.8415 139.407 54.9374 139.781 54.9374ZM143.132 55.5766V50.122H143.941V50.9459H143.998C144.098 50.676 144.278 50.457 144.538 50.2889C144.798 50.1208 145.092 50.0368 145.419 50.0368C145.48 50.0368 145.557 50.038 145.65 50.0403C145.742 50.0427 145.812 50.0463 145.859 50.051V50.9033C145.831 50.8962 145.766 50.8855 145.664 50.8713C145.564 50.8547 145.459 50.8465 145.348 50.8465C145.083 50.8465 144.846 50.9021 144.637 51.0134C144.432 51.1223 144.268 51.2738 144.147 51.4679C144.029 51.6597 143.97 51.8787 143.97 52.1249V55.5766H143.132ZM148.502 55.6902C147.991 55.6902 147.551 55.5695 147.181 55.328C146.812 55.0865 146.528 54.7539 146.329 54.3301C146.13 53.9064 146.031 53.4222 146.031 52.8777C146.031 52.3237 146.133 51.8349 146.336 51.4111C146.542 50.9849 146.829 50.6523 147.196 50.4132C147.565 50.1717 147.996 50.051 148.488 50.051C148.872 50.051 149.217 50.122 149.525 50.2641C149.833 50.4061 150.085 50.605 150.282 50.8607C150.478 51.1163 150.6 51.4146 150.647 51.7555H149.809C149.745 51.507 149.603 51.2868 149.383 51.095C149.165 50.9009 148.872 50.8038 148.502 50.8038C148.176 50.8038 147.889 50.8891 147.643 51.0595C147.399 51.2276 147.209 51.4655 147.071 51.7733C146.936 52.0787 146.869 52.4374 146.869 52.8493C146.869 53.2707 146.935 53.6376 147.068 53.9501C147.203 54.2626 147.392 54.5053 147.636 54.6781C147.882 54.851 148.171 54.9374 148.502 54.9374C148.72 54.9374 148.918 54.8995 149.095 54.8237C149.273 54.748 149.423 54.6391 149.546 54.497C149.67 54.355 149.757 54.1845 149.809 53.9857H150.647C150.6 54.3076 150.483 54.5976 150.296 54.8557C150.111 55.1114 149.866 55.315 149.561 55.4665C149.258 55.6156 148.905 55.6902 148.502 55.6902ZM152.012 57.622C151.87 57.622 151.743 57.6102 151.632 57.5865C151.521 57.5652 151.444 57.5439 151.401 57.5226L151.614 56.784C151.818 56.836 151.998 56.855 152.154 56.8408C152.31 56.8266 152.449 56.7567 152.57 56.6313C152.693 56.5082 152.805 56.3081 152.907 56.0311L153.063 55.605L151.046 50.122H151.955L153.461 54.4686H153.518L155.024 50.122H155.933L153.617 56.372C153.513 56.6537 153.384 56.8869 153.23 57.0716C153.076 57.2586 152.898 57.3971 152.694 57.4871C152.493 57.577 152.266 57.622 152.012 57.622ZM158.659 55.6902C158.148 55.6902 157.708 55.5695 157.338 55.328C156.969 55.0865 156.685 54.7539 156.486 54.3301C156.287 53.9064 156.188 53.4222 156.188 52.8777C156.188 52.3237 156.29 51.8349 156.493 51.4111C156.699 50.9849 156.986 50.6523 157.353 50.4132C157.722 50.1717 158.153 50.051 158.645 50.051C159.029 50.051 159.374 50.122 159.682 50.2641C159.99 50.4061 160.242 50.605 160.439 50.8607C160.635 51.1163 160.757 51.4146 160.804 51.7555H159.966C159.902 51.507 159.76 51.2868 159.54 51.095C159.322 50.9009 159.029 50.8038 158.659 50.8038C158.333 50.8038 158.046 50.8891 157.8 51.0595C157.556 51.2276 157.366 51.4655 157.228 51.7733C157.093 52.0787 157.026 52.4374 157.026 52.8493C157.026 53.2707 157.092 53.6376 157.225 53.9501C157.36 54.2626 157.549 54.5053 157.793 54.6781C158.039 54.851 158.328 54.9374 158.659 54.9374C158.877 54.9374 159.075 54.8995 159.252 54.8237C159.43 54.748 159.58 54.6391 159.703 54.497C159.827 54.355 159.914 54.1845 159.966 53.9857H160.804C160.757 54.3076 160.64 54.5976 160.453 54.8557C160.268 55.1114 160.023 55.315 159.718 55.4665C159.415 55.6156 159.062 55.6902 158.659 55.6902ZM162.468 48.3038V55.5766H161.629V48.3038H162.468ZM163.602 55.5766V50.122H164.441V55.5766H163.602ZM164.029 49.2129C163.865 49.2129 163.724 49.1573 163.606 49.046C163.49 48.9348 163.432 48.801 163.432 48.6448C163.432 48.4885 163.49 48.3547 163.606 48.2435C163.724 48.1322 163.865 48.0766 164.029 48.0766C164.192 48.0766 164.332 48.1322 164.448 48.2435C164.566 48.3547 164.625 48.4885 164.625 48.6448C164.625 48.801 164.566 48.9348 164.448 49.046C164.332 49.1573 164.192 49.2129 164.029 49.2129ZM166.414 52.2953V55.5766H165.576V50.122H166.385V50.9743H166.456C166.584 50.6973 166.778 50.4748 167.039 50.3067C167.299 50.1362 167.635 50.051 168.047 50.051C168.416 50.051 168.74 50.1268 169.017 50.2783C169.294 50.4274 169.509 50.6547 169.663 50.9601C169.817 51.2631 169.894 51.6466 169.894 52.1107V55.5766H169.056V52.1675C169.056 51.739 168.944 51.4052 168.722 51.1661C168.499 50.9246 168.194 50.8038 167.806 50.8038C167.538 50.8038 167.299 50.8618 167.088 50.9778C166.88 51.0939 166.715 51.2631 166.595 51.4857C166.474 51.7082 166.414 51.9781 166.414 52.2953ZM173.227 57.7357C172.822 57.7357 172.474 57.6836 172.183 57.5794C171.892 57.4776 171.649 57.3427 171.455 57.1746C171.263 57.0089 171.11 56.8313 170.997 56.6419L171.664 56.1732C171.74 56.2726 171.836 56.3862 171.952 56.5141C172.068 56.6443 172.227 56.7567 172.428 56.8514C172.631 56.9485 172.898 56.997 173.227 56.997C173.667 56.997 174.031 56.8905 174.317 56.6774C174.604 56.4644 174.747 56.1305 174.747 55.676V54.568H174.676C174.614 54.6675 174.527 54.7906 174.413 54.9374C174.302 55.0818 174.141 55.2108 173.93 55.3244C173.722 55.4357 173.44 55.4913 173.085 55.4913C172.644 55.4913 172.249 55.3872 171.899 55.1788C171.551 54.9705 171.275 54.6675 171.071 54.2698C170.87 53.872 170.769 53.3891 170.769 52.8209C170.769 52.2622 170.868 51.7757 171.064 51.3614C171.261 50.9447 171.534 50.6227 171.885 50.3955C172.235 50.1658 172.64 50.051 173.099 50.051C173.454 50.051 173.736 50.1102 173.944 50.2286C174.155 50.3446 174.316 50.4771 174.427 50.6263C174.541 50.7731 174.628 50.8938 174.69 50.9885H174.775V50.122H175.585V55.7328C175.585 56.2016 175.478 56.5827 175.265 56.8763C175.055 57.1722 174.77 57.3888 174.413 57.5261C174.058 57.6658 173.662 57.7357 173.227 57.7357ZM173.198 54.7385C173.535 54.7385 173.819 54.6616 174.051 54.5077C174.283 54.3538 174.459 54.1324 174.58 53.8436C174.701 53.5548 174.761 53.2091 174.761 52.8067C174.761 52.4137 174.702 52.0669 174.583 51.7662C174.465 51.4655 174.29 51.23 174.058 51.0595C173.826 50.8891 173.539 50.8038 173.198 50.8038C172.843 50.8038 172.547 50.8938 172.311 51.0737C172.076 51.2537 171.9 51.4951 171.782 51.7982C171.666 52.1012 171.608 52.4374 171.608 52.8067C171.608 53.1855 171.667 53.5205 171.785 53.8117C171.906 54.1005 172.083 54.3278 172.318 54.4935C172.555 54.6568 172.848 54.7385 173.198 54.7385ZM33.5979 60.3038H34.4786V65.5027C34.4786 65.9667 34.3933 66.3609 34.2229 66.6852C34.0524 67.0096 33.8121 67.2558 33.502 67.4239C33.1919 67.592 32.8261 67.676 32.4047 67.676C32.007 67.676 31.653 67.6038 31.3429 67.4594C31.0328 67.3126 30.7889 67.1043 30.6114 66.8344C30.4338 66.5645 30.345 66.2437 30.345 65.872H31.2115C31.2115 66.078 31.2624 66.2579 31.3642 66.4118C31.4684 66.5633 31.6104 66.6817 31.7903 66.7669C31.9703 66.8521 32.1751 66.8948 32.4047 66.8948C32.658 66.8948 32.8734 66.8415 33.051 66.7349C33.2286 66.6284 33.3635 66.4722 33.4558 66.2662C33.5505 66.0579 33.5979 65.8034 33.5979 65.5027V60.3038ZM37.9457 67.6902C37.4533 67.6902 37.0213 67.573 36.6496 67.3386C36.2803 67.1043 35.9914 66.7764 35.7831 66.355C35.5771 65.9336 35.4742 65.4412 35.4742 64.8777C35.4742 64.3095 35.5771 63.8135 35.7831 63.3898C35.9914 62.966 36.2803 62.6369 36.6496 62.4026C37.0213 62.1682 37.4533 62.051 37.9457 62.051C38.4382 62.051 38.869 62.1682 39.2384 62.4026C39.61 62.6369 39.8989 62.966 40.1048 63.3898C40.3132 63.8135 40.4173 64.3095 40.4173 64.8777C40.4173 65.4412 40.3132 65.9336 40.1048 66.355C39.8989 66.7764 39.61 67.1043 39.2384 67.3386C38.869 67.573 38.4382 67.6902 37.9457 67.6902ZM37.9457 66.9374C38.3198 66.9374 38.6276 66.8415 38.869 66.6497C39.1105 66.458 39.2893 66.2058 39.4053 65.8933C39.5213 65.5808 39.5793 65.2423 39.5793 64.8777C39.5793 64.5131 39.5213 64.1734 39.4053 63.8585C39.2893 63.5437 39.1105 63.2892 38.869 63.095C38.6276 62.9009 38.3198 62.8038 37.9457 62.8038C37.5717 62.8038 37.2639 62.9009 37.0225 63.095C36.781 63.2892 36.6022 63.5437 36.4862 63.8585C36.3702 64.1734 36.3122 64.5131 36.3122 64.8777C36.3122 65.2423 36.3702 65.5808 36.4862 65.8933C36.6022 66.2058 36.781 66.458 37.0225 66.6497C37.2639 66.8415 37.5717 66.9374 37.9457 66.9374ZM44.7341 65.3465V62.122H45.5722V67.5766H44.7341V66.6533H44.6773C44.5495 66.9303 44.3506 67.1658 44.0807 67.3599C43.8108 67.5517 43.4699 67.6476 43.058 67.6476C42.7171 67.6476 42.4141 67.573 42.1489 67.4239C41.8838 67.2724 41.6754 67.0451 41.5239 66.7421C41.3724 66.4367 41.2966 66.0519 41.2966 65.5879V62.122H42.1347V65.5311C42.1347 65.9288 42.246 66.2461 42.4685 66.4828C42.6934 66.7196 42.9799 66.8379 43.3279 66.8379C43.5362 66.8379 43.7481 66.7847 43.9635 66.6781C44.1813 66.5716 44.3636 66.4082 44.5104 66.1881C44.6596 65.9679 44.7341 65.6874 44.7341 65.3465ZM46.7072 67.5766V62.122H47.5168V62.9459H47.5737C47.6731 62.676 47.853 62.457 48.1134 62.2889C48.3738 62.1208 48.6674 62.0368 48.9941 62.0368C49.0557 62.0368 49.1326 62.038 49.2249 62.0403C49.3173 62.0427 49.3871 62.0463 49.4345 62.051V62.9033C49.406 62.8962 49.3409 62.8855 49.2391 62.8713C49.1397 62.8547 49.0344 62.8465 48.9231 62.8465C48.6579 62.8465 48.4212 62.9021 48.2129 63.0134C48.0069 63.1223 47.8435 63.2738 47.7228 63.4679C47.6044 63.6597 47.5452 63.8787 47.5452 64.1249V67.5766H46.7072ZM50.866 64.2953V67.5766H50.0279V62.122H50.8375V62.9743H50.9086C51.0364 62.6973 51.2305 62.4748 51.491 62.3067C51.7514 62.1362 52.0875 62.051 52.4995 62.051C52.8688 62.051 53.1919 62.1268 53.4689 62.2783C53.7459 62.4274 53.9614 62.6547 54.1152 62.9601C54.2691 63.2631 54.3461 63.6466 54.3461 64.1107V67.5766H53.508V64.1675C53.508 63.739 53.3967 63.4052 53.1742 63.1661C52.9517 62.9246 52.6463 62.8038 52.258 62.8038C51.9905 62.8038 51.7514 62.8618 51.5407 62.9778C51.3323 63.0939 51.1678 63.2631 51.0471 63.4857C50.9263 63.7082 50.866 63.9781 50.866 64.2953ZM57.7644 67.6902C57.2389 67.6902 56.7855 67.5742 56.4043 67.3422C56.0256 67.1078 55.7332 66.7811 55.5272 66.3621C55.3236 65.9407 55.2218 65.4506 55.2218 64.8919C55.2218 64.3332 55.3236 63.8408 55.5272 63.4146C55.7332 62.9861 56.0196 62.6523 56.3866 62.4132C56.7559 62.1717 57.1868 62.051 57.6792 62.051C57.9633 62.051 58.2438 62.0983 58.5208 62.193C58.7978 62.2877 59.0499 62.4416 59.2772 62.6547C59.5045 62.8654 59.6856 63.1448 59.8205 63.4928C59.9555 63.8408 60.0229 64.2693 60.0229 64.7783V65.1334H55.8184V64.409H59.1707C59.1707 64.1012 59.1091 63.8266 58.986 63.5851C58.8653 63.3436 58.6925 63.153 58.4676 63.0134C58.245 62.8737 57.9822 62.8038 57.6792 62.8038C57.3454 62.8038 57.0566 62.8867 56.8127 63.0524C56.5712 63.2158 56.3854 63.4288 56.2552 63.6916C56.125 63.9544 56.0599 64.2361 56.0599 64.5368V65.0198C56.0599 65.4317 56.1309 65.7809 56.2729 66.0673C56.4174 66.3514 56.6174 66.568 56.8731 66.7172C57.1288 66.864 57.4259 66.9374 57.7644 66.9374C57.9846 66.9374 58.1835 66.9066 58.361 66.845C58.5409 66.7811 58.696 66.6864 58.8262 66.5609C58.9564 66.4331 59.057 66.2745 59.1281 66.0851L59.9377 66.3124C59.8525 66.587 59.7093 66.8285 59.508 67.0368C59.3068 67.2428 59.0582 67.4037 58.7623 67.5198C58.4664 67.6334 58.1337 67.6902 57.7644 67.6902ZM61.2716 69.622C61.1295 69.622 61.0029 69.6102 60.8916 69.5865C60.7803 69.5652 60.7034 69.5439 60.6608 69.5226L60.8738 68.784C61.0774 68.836 61.2574 68.855 61.4136 68.8408C61.5699 68.8266 61.7084 68.7567 61.8291 68.6313C61.9522 68.5082 62.0647 68.3081 62.1665 68.0311L62.3227 67.605L60.3057 62.122H61.2147L62.7204 66.4686H62.7772L64.2829 62.122H65.192L62.8767 68.372C62.7725 68.6537 62.6435 68.8869 62.4896 69.0716C62.3357 69.2586 62.157 69.3971 61.9534 69.4871C61.7522 69.577 61.5249 69.622 61.2716 69.622Z" fill="#6CBAF9"/>
<defs>
<filter id="filter0_i_145_238" x="29.1348" y="10.8237" width="180.576" height="29.4602" filterUnits="userSpaceOnUse" color-interpolation-filters="sRGB">
<feFlood flood-opacity="0" result="BackgroundImageFix"/>
<feBlend mode="normal" in="SourceGraphic" in2="BackgroundImageFix" result="shape"/>
<feColorMatrix in="SourceAlpha" type="matrix" values="0 0 0 0 0 0 0 0 0 0 0 0 0 0 0 0 0 0 127 0" result="hardAlpha"/>
<feOffset dx="2" dy="2"/>
<feComposite in2="hardAlpha" operator="arithmetic" k2="-1" k3="1"/>
<feColorMatrix type="matrix" values="0 0 0 0 0.820833 0 0 0 0 0.957 0 0 0 0 1 0 0 0 0.52 0"/>
<feBlend mode="normal" in2="shape" result="effect1_innerShadow_145_238"/>
</filter>
</defs>
</svg>
