<svg width="47" height="46" viewBox="0 0 47 46" fill="none" xmlns="http://www.w3.org/2000/svg">
<mask id="mask0_13_310" style="mask-type:alpha" maskUnits="userSpaceOnUse" x="0" y="0" width="47" height="46">
<rect x="0.862671" y="0.4151" width="45.4305" height="45.4305" fill="#D9D9D9"/>
</mask>
<g mask="url(#mask0_13_310)">
<path d="M30.7159 17.4515V13.6657M30.7159 9.87978C31.7571 9.87978 32.6483 10.2505 33.3897 10.9919C34.1311 11.7333 34.5018 12.6245 34.5018 13.6657H38.2877C38.824 13.6657 39.2736 13.8471 39.6364 14.2099C39.9992 14.5727 40.1806 15.0223 40.1806 15.5586C40.1806 16.0949 39.9992 16.5445 39.6364 16.9073C39.2736 17.2701 38.824 17.4515 38.2877 17.4515H34.5018C34.5018 18.4926 34.1311 19.3839 33.3897 20.1253C32.6483 20.8667 31.7571 21.2374 30.7159 21.2374" stroke="#25F2FF" stroke-width="3"/>
<path d="M12.2203 36.3809H23.5779V34.488H12.2203V36.3809ZM23.5779 30.7021H19.7921V21.2374H27.3638V9.87978H12.2203C11.1792 9.87978 10.2879 10.2505 9.54653 10.9919C8.80513 11.7333 8.43443 12.6245 8.43443 13.6657V17.4515C8.43443 18.4926 8.80513 19.3839 9.54653 20.1253C10.2879 20.8667 11.1792 21.2374 12.2203 21.2374H16.0062V30.7021H12.2203V25.0233C10.1381 25.0233 8.35556 24.2819 6.87276 22.7991C5.38996 21.3163 4.64856 19.5338 4.64856 17.4515V13.6657C4.64856 11.5834 5.38996 9.8009 6.87276 8.3181C8.35556 6.8353 10.1381 6.0939 12.2203 6.0939H27.3638C28.4049 6.0939 29.2962 6.4646 30.0376 7.206C30.779 7.9474 31.1497 8.83866 31.1497 9.87978V21.2374C31.1497 22.2785 30.779 23.1698 30.0376 23.9112C29.2962 24.6526 28.4049 25.0233 27.3638 25.0233H23.5779V30.7021ZM11.2738 40.1668C10.4851 40.1668 9.8147 39.8907 9.26259 39.3386C8.71049 38.7865 8.43443 38.1161 8.43443 37.3274V33.5415C8.43443 32.7528 8.71049 32.0824 9.26259 31.5302C9.8147 30.9781 10.4851 30.7021 11.2738 30.7021H24.5244C25.3131 30.7021 25.9835 30.9781 26.5356 31.5302C27.0878 32.0824 27.3638 32.7528 27.3638 33.5415V37.3274C27.3638 38.1161 27.0878 38.7865 26.5356 39.3386C25.9835 39.8907 25.3131 40.1668 24.5244 40.1668H11.2738Z" fill="white"/>
</g>
<path d="M22.1583 19.3445H13.64C13.2615 19.3445 12.9302 19.2025 12.6462 18.9186C12.3623 18.6346 12.2203 18.3034 12.2203 17.9248C12.2203 17.5462 12.3623 17.2149 12.6462 16.931C12.9302 16.647 13.2615 16.5051 13.64 16.5051H22.1583C22.5368 16.5051 22.8681 16.647 23.152 16.931C23.436 17.2149 23.578 17.5462 23.578 17.9248C23.578 18.3034 23.436 18.6346 23.152 18.9186C22.8681 19.2025 22.5368 19.3445 22.1583 19.3445Z" fill="#25F2FF"/>
<path d="M22.1583 14.6121H13.64C13.2615 14.6121 12.9302 14.4702 12.6462 14.1862C12.3623 13.9023 12.2203 13.571 12.2203 13.1924C12.2203 12.8138 12.3623 12.4826 12.6462 12.1986C12.9302 11.9147 13.2615 11.7727 13.64 11.7727H22.1583C22.5368 11.7727 22.8681 11.9147 23.152 12.1986C23.436 12.4826 23.578 12.8138 23.578 13.1924C23.578 13.571 23.436 13.9023 23.152 14.1862C22.8681 14.4702 22.5368 14.6121 22.1583 14.6121Z" fill="#25F2FF"/>
</svg>
