<svg width="45" height="46" viewBox="0 0 45 46" fill="none" xmlns="http://www.w3.org/2000/svg">
<mask id="mask0_13_265" style="mask-type:alpha" maskUnits="userSpaceOnUse" x="0" y="0" width="45" height="46">
<rect x="0.338257" y="0.969849" width="44.6446" height="44.6446" fill="#D9D9D9"/>
</mask>
<g mask="url(#mask0_13_265)">
<path d="M7.7789 36.3135C5.73269 36.3135 3.98101 35.5849 2.52386 34.1278C1.06671 32.6706 0.338135 30.9189 0.338135 28.8727C0.338135 27.1056 0.903943 25.5399 2.03556 24.1757C3.16718 22.8116 4.61658 21.959 6.38376 21.618L5.08162 20.5019H0.338135V17.7116H8.709L13.3595 20.5019L20.8002 17.7116H26.6599L23.7766 13.9912H18.9401V10.2708H25.5437L29.4501 15.2933L35.6818 12.131V17.7116H31.4033L34.6587 21.99C35.1237 21.804 35.5965 21.6645 36.0771 21.5715C36.5576 21.4785 37.0459 21.432 37.542 21.432C39.5882 21.432 41.3399 22.1605 42.797 23.6177C44.2542 25.0748 44.9827 26.8265 44.9827 28.8727C44.9827 30.9189 44.2542 32.6706 42.797 34.1278C41.3399 35.5849 39.5882 36.3135 37.542 36.3135C35.4958 36.3135 33.7441 35.5849 32.2869 34.1278C30.8298 32.6706 30.1012 30.9189 30.1012 28.8727C30.1012 28.0356 30.2485 27.2218 30.543 26.4312C30.8375 25.6406 31.2483 24.9043 31.7754 24.2223L30.8453 23.1061L24.5206 32.5931H18.9401L15.2197 29.3378C15.0647 31.291 14.2741 32.9419 12.8479 34.2905C11.4218 35.6392 9.7321 36.3135 7.7789 36.3135ZM7.7789 32.5931C8.80201 32.5931 9.67785 32.2288 10.4064 31.5003C11.135 30.7717 11.4993 29.8958 11.4993 28.8727C11.4993 27.8496 11.135 26.9738 10.4064 26.2452C9.67785 25.5166 8.80201 25.1523 7.7789 25.1523C6.7558 25.1523 5.87996 25.5166 5.15138 26.2452C4.42281 26.9738 4.05852 27.8496 4.05852 28.8727C4.05852 29.8958 4.42281 30.7717 5.15138 31.5003C5.87996 32.2288 6.7558 32.5931 7.7789 32.5931ZM37.542 32.5931C38.5651 32.5931 39.4409 32.2288 40.1695 31.5003C40.8981 30.7717 41.2624 29.8958 41.2624 28.8727C41.2624 27.8496 40.8981 26.9738 40.1695 26.2452C39.4409 25.5166 38.5651 25.1523 37.542 25.1523C36.5189 25.1523 35.643 25.5166 34.9145 26.2452C34.1859 26.9738 33.8216 27.8496 33.8216 28.8727C33.8216 29.8958 34.1859 30.7717 34.9145 31.5003C35.643 32.2288 36.5189 32.5931 37.542 32.5931ZM22.5674 28.8727L27.4969 21.432H21.4513L14.7546 23.9432L20.3352 28.8727H22.5674Z" fill="white"/>
</g>
<path d="M31.4015 17.7697L29.4221 15.2683L35.7735 12.0057V17.7697H31.4015Z" fill="#25F2FF"/>
</svg>
