<svg width="47" height="46" viewBox="0 0 47 46" fill="none" xmlns="http://www.w3.org/2000/svg">
<mask id="mask0_13_276" style="mask-type:alpha" maskUnits="userSpaceOnUse" x="0" y="0" width="47" height="46">
<rect x="0.781494" y="0.228271" width="45.3861" height="45.3861" fill="#D9D9D9"/>
</mask>
<g mask="url(#mask0_13_276)">
<path d="M12.128 36.159C10.5521 36.159 9.21262 35.6074 8.10949 34.5042C7.00635 33.4011 6.45478 32.0616 6.45478 30.4857H2.67261V13.4659C2.67261 12.4258 3.04295 11.5354 3.78362 10.7947C4.5243 10.0541 5.41469 9.68372 6.45478 9.68372H32.93L44.2766 21.0302V30.4857H40.4944C40.4944 32.0616 39.9428 33.4011 38.8397 34.5042C37.7365 35.6074 36.397 36.159 34.8211 36.159C33.2452 36.159 31.9057 35.6074 30.8025 34.5042C29.6994 33.4011 29.1478 32.0616 29.1478 30.4857H17.8013C17.8013 32.0616 17.2497 33.4011 16.1466 34.5042C15.0435 35.6074 13.704 36.159 12.128 36.159ZM29.1478 19.1392H36.7122L31.0389 13.4659H29.1478V19.1392ZM17.8013 19.1392H25.3657V13.4659H17.8013V19.1392ZM6.45478 19.1392H14.0191V13.4659H6.45478V19.1392ZM12.128 32.8496C12.7899 32.8496 13.3494 32.621 13.8064 32.164C14.2634 31.707 14.4919 31.1476 14.4919 30.4857C14.4919 29.8238 14.2634 29.2644 13.8064 28.8073C13.3494 28.3503 12.7899 28.1218 12.128 28.1218C11.4662 28.1218 10.9067 28.3503 10.4497 28.8073C9.9927 29.2644 9.76419 29.8238 9.76419 30.4857C9.76419 31.1476 9.9927 31.707 10.4497 32.164C10.9067 32.621 11.4662 32.8496 12.128 32.8496ZM34.8211 32.8496C35.483 32.8496 36.0424 32.621 36.4995 32.164C36.9565 31.707 37.185 31.1476 37.185 30.4857C37.185 29.8238 36.9565 29.2644 36.4995 28.8073C36.0424 28.3503 35.483 28.1218 34.8211 28.1218C34.1592 28.1218 33.5998 28.3503 33.1428 28.8073C32.6858 29.2644 32.4573 29.8238 32.4573 30.4857C32.4573 31.1476 32.6858 31.707 33.1428 32.164C33.5998 32.621 34.1592 32.8496 34.8211 32.8496ZM6.45478 26.7035H7.96766C8.50346 26.1362 9.11807 25.6792 9.81147 25.3325C10.5049 24.9858 11.2771 24.8124 12.128 24.8124C12.979 24.8124 13.7512 24.9858 14.4446 25.3325C15.138 25.6792 15.7526 26.1362 16.2884 26.7035H30.6607C31.1965 26.1362 31.8111 25.6792 32.5045 25.3325C33.1979 24.9858 33.9701 24.8124 34.8211 24.8124C35.6721 24.8124 36.4443 24.9858 37.1377 25.3325C37.8311 25.6792 38.4457 26.1362 38.9815 26.7035H40.4944V22.9213H6.45478V26.7035Z" fill="white"/>
</g>
<circle cx="12.087" cy="30.3153" r="3.8575" stroke="#25F2FF" stroke-width="4"/>
<circle cx="34.6693" cy="30.3153" r="3.8575" stroke="#25F2FF" stroke-width="4"/>
</svg>
