<svg width="43" height="43" viewBox="0 0 43 43" fill="none" xmlns="http://www.w3.org/2000/svg">
<mask id="mask0_13_299" style="mask-type:alpha" maskUnits="userSpaceOnUse" x="0" y="0" width="43" height="43">
<rect x="0.311279" y="0.608154" width="42.0349" height="42.0349" fill="#D9D9D9"/>
</mask>
<g mask="url(#mask0_13_299)">
<path d="M9.06858 33.8858H24.8317V25.1285H33.5889V9.36542H9.06858V33.8858ZM9.06858 37.3887C8.10528 37.3887 7.28064 37.0457 6.59465 36.3597C5.90867 35.6737 5.56567 34.8491 5.56567 33.8858V9.36542C5.56567 8.40212 5.90867 7.57748 6.59465 6.89149C7.28064 6.20551 8.10528 5.86251 9.06858 5.86251H33.5889C34.5522 5.86251 35.3769 6.20551 36.0628 6.89149C36.7488 7.57748 37.0918 8.40212 37.0918 9.36542V26.8799L26.5831 37.3887H9.06858Z" fill="white"/>
<path d="M12.5714 21.6256V25.1285H21.3287V21.6256H12.5714Z" fill="#25F2FF"/>
<path d="M12.5714 14.6198V18.1227H30.0859V14.6198H12.5714Z" fill="#25F2FF"/>
</g>
</svg>
