<svg width="40" height="40" viewBox="0 0 40 40" fill="none" xmlns="http://www.w3.org/2000/svg">
<mask id="mask0_13_293" style="mask-type:alpha" maskUnits="userSpaceOnUse" x="0" y="0" width="40" height="40">
<rect x="0.39856" y="0.522568" width="39.1204" height="39.1204" fill="#D9D9D9"/>
</mask>
<g mask="url(#mask0_13_293)">
<path d="M8.54861 7.04264V16.8635V16.8228V33.1229V7.04264ZM11.8086 23.3428H17.5137C17.7582 22.718 18.057 22.1339 18.4102 21.5906C18.7634 21.0472 19.1709 20.5446 19.6327 20.0828H11.8086V23.3428ZM11.8086 29.8629H16.984C16.8481 29.3196 16.7598 28.7762 16.7191 28.2329C16.6783 27.6895 16.6851 27.1462 16.7395 26.6029H11.8086V29.8629ZM8.54861 36.383C7.6521 36.383 6.88463 36.0638 6.24621 35.4253C5.60779 34.7869 5.28857 34.0194 5.28857 33.1229V7.04264C5.28857 6.14613 5.60779 5.37867 6.24621 4.74024C6.88463 4.10182 7.6521 3.78261 8.54861 3.78261H21.5888L31.3689 13.5627V17.6378C30.8527 17.4204 30.3229 17.2506 29.7796 17.1284C29.2363 17.0061 28.6793 16.9178 28.1088 16.8635V15.1927H19.9587V7.04264H8.54861V33.1229H18.3695C18.8041 33.7749 19.2931 34.3794 19.8365 34.9363C20.3798 35.4933 20.9775 35.9755 21.6295 36.383H8.54861Z" fill="white"/>
</g>
<path d="M31.2719 31.396C30.1887 32.4792 28.9043 33.0127 27.2938 33.0127C25.6834 33.0127 24.399 32.4792 23.3157 31.396C22.2324 30.3127 21.699 29.0283 21.699 27.4178C21.699 25.8074 22.2324 24.523 23.3157 23.4397C24.399 22.3565 25.6834 21.823 27.2938 21.823C28.9043 21.823 30.1887 22.3565 31.2719 23.4397C32.3552 24.523 32.8887 25.8074 32.8887 27.4178C32.8887 29.0283 32.3552 30.3127 31.2719 31.396Z" stroke="#25F2FF" stroke-width="4"/>
<rect x="32.7686" y="31.1075" width="5.29606" height="2.52425" transform="rotate(45 32.7686 31.1075)" fill="#25F2FF"/>
</svg>
