<svg width="19" height="18" viewBox="0 0 19 18" fill="none" xmlns="http://www.w3.org/2000/svg">
<mask id="mask0_27_166" style="mask-type:alpha" maskUnits="userSpaceOnUse" x="0" y="0" width="19" height="18">
<rect x="0.517822" width="18" height="18" fill="#D9D9D9"/>
</mask>
<g mask="url(#mask0_27_166)">
<path d="M9.51782 15.75V14.25H14.7678V3.75H9.51782V2.25H14.7678C15.1803 2.25 15.5334 2.39688 15.8272 2.69063C16.1209 2.98438 16.2678 3.3375 16.2678 3.75V14.25C16.2678 14.6625 16.1209 15.0156 15.8272 15.3094C15.5334 15.6031 15.1803 15.75 14.7678 15.75H9.51782ZM8.01782 12.75L6.98657 11.6625L8.89907 9.75H2.76782V8.25H8.89907L6.98657 6.3375L8.01782 5.25L11.7678 9L8.01782 12.75Z" fill="#3733BE"/>
</g>
</svg>
